<svg width="412" height="400" xmlns="http://www.w3.org/2000/svg" xmlns:xlink="http://www.w3.org/1999/xlink" xml:space="preserve" overflow="hidden"><defs><clipPath id="clip0"><rect x="440" y="152" width="412" height="400"/></clipPath><clipPath id="clip1"><rect x="440" y="152" width="412" height="400"/></clipPath><linearGradient x1="308.419" y1="449.19" x2="466.501" y2="161.727" gradientUnits="userSpaceOnUse" spreadMethod="pad" id="stroke2"><stop offset="0" stop-color="#1C458E" stop-opacity="1"/><stop offset="0.711538" stop-color="#0298CA" stop-opacity="1"/><stop offset="1" stop-color="#0298CA" stop-opacity="1"/></linearGradient><linearGradient x1="477.891" y1="150.337" x2="307.397" y2="447.357" gradientUnits="userSpaceOnUse" spreadMethod="pad" id="stroke3"><stop offset="0" stop-color="#0298CA" stop-opacity="1"/><stop offset="1" stop-color="#1C458E" stop-opacity="1"/></linearGradient><linearGradient x1="309.33" y1="444.179" x2="474.702" y2="162.182" gradientUnits="userSpaceOnUse" spreadMethod="pad" id="stroke4"><stop offset="0" stop-color="#1C458E" stop-opacity="1"/><stop offset="0.663462" stop-color="#0298CA" stop-opacity="1"/><stop offset="1" stop-color="#0298CA" stop-opacity="1"/></linearGradient></defs><g clip-path="url(#clip0)" transform="translate(-440 -152)"><g clip-path="url(#clip1)"><path d="M331.653 241.906 345.32 207.283 394.977 207.283 430.512 277.441" stroke="url(#stroke2)" stroke-width="16.4004" stroke-linecap="butt" stroke-linejoin="round" stroke-miterlimit="4" fill="none" fill-rule="nonzero" transform="matrix(1 0 0 1.0004 279.578 -0.482921)"/><path d="M331.653 353.976 345.32 388.599 394.977 388.599 430.512 318.442" stroke="url(#stroke3)" stroke-width="16.4004" stroke-linecap="butt" stroke-linejoin="round" stroke-miterlimit="4" fill="none" fill-rule="nonzero" transform="matrix(1 0 0 1.0004 279.578 -0.482921)"/><path d="M220.039 206.828C221.7 206.828 247.388 206.828 281.996 206.828M220.039 389.966 281.996 389.966M281.996 206.828C330.94 206.828 397.725 206.828 439.623 206.828L493.835 300.219 444.634 389.966 281.996 389.966M281.996 206.828 305.23 162.182 473.335 162.182 551.693 300.219 473.335 437.801 305.23 437.801 281.996 389.966M168.56 241.906 410.467 241.906 429.6 276.53 249.196 276.53 236.895 300.219M236.895 300.219 204.094 300.219M236.895 300.219 249.196 322.542 429.6 322.542 410.467 356.254 168.56 356.254" stroke="url(#stroke4)" stroke-width="16.4004" stroke-linecap="round" stroke-linejoin="round" stroke-miterlimit="4" fill="none" fill-rule="nonzero" transform="matrix(1 0 0 1.0004 279.578 -0.482921)"/><path d="M228.695 389.966C228.695 396.004 223.8 400.9 217.761 400.9 211.723 400.9 206.828 396.004 206.828 389.966 206.828 383.927 211.723 379.032 217.761 379.032 223.8 379.032 228.695 383.927 228.695 389.966Z" fill="#1B4A91" fill-rule="nonzero" fill-opacity="1" transform="matrix(1 0 0 1.0004 279.578 -0.482921)"/><path d="M228.695 207.739C228.695 213.777 223.8 218.673 217.761 218.673 211.723 218.673 206.828 213.777 206.828 207.739 206.828 201.7 211.723 196.805 217.761 196.805 223.8 196.805 228.695 201.7 228.695 207.739Z" fill="#0886BD" fill-rule="nonzero" fill-opacity="1" transform="matrix(1 0 0 1.0004 279.578 -0.482921)"/><path d="M241.451 491.095 241.451 500.979 215.997 500.979 215.997 516.636 235.503 516.636 235.503 526.345 215.997 526.345 215.997 552.148 203.752 552.148 203.752 491.095 241.451 491.095ZM287.571 540.515 263.254 540.515 259.231 552.148 246.373 552.148 268.328 491.007 282.585 491.007 304.54 552.148 291.594 552.148 287.571 540.515ZM284.247 530.718 275.413 505.177 266.578 530.718 284.247 530.718ZM333.826 552.76C329.57 552.76 325.721 552.031 322.28 550.574 318.898 549.116 316.216 547.017 314.233 544.276 312.251 541.535 311.23 538.299 311.172 534.567L324.292 534.567C324.467 537.074 325.342 539.057 326.916 540.515 328.549 541.972 330.765 542.701 333.564 542.701 336.421 542.701 338.666 542.031 340.299 540.69 341.932 539.29 342.748 537.482 342.748 535.267 342.748 533.459 342.194 531.972 341.086 530.806 339.978 529.639 338.579 528.736 336.888 528.094 335.255 527.394 332.981 526.636 330.065 525.82 326.1 524.654 322.864 523.517 320.356 522.409 317.907 521.242 315.779 519.522 313.971 517.248 312.222 514.915 311.347 511.825 311.347 507.976 311.347 504.361 312.251 501.212 314.058 498.53 315.866 495.847 318.403 493.806 321.668 492.407 324.934 490.949 328.666 490.22 332.864 490.22 339.162 490.22 344.264 491.765 348.171 494.856 352.137 497.888 354.323 502.145 354.731 507.626L341.261 507.626C341.145 505.527 340.241 503.807 338.55 502.466 336.917 501.066 334.73 500.366 331.99 500.366 329.599 500.366 327.674 500.979 326.217 502.203 324.817 503.428 324.117 505.206 324.117 507.539 324.117 509.172 324.642 510.542 325.692 511.65 326.8 512.7 328.141 513.574 329.715 514.274 331.348 514.915 333.622 515.674 336.538 516.548 340.503 517.714 343.74 518.881 346.247 520.047 348.754 521.213 350.912 522.963 352.72 525.295 354.527 527.628 355.431 530.689 355.431 534.479 355.431 537.745 354.586 540.777 352.895 543.576 351.204 546.375 348.725 548.62 345.46 550.311 342.194 551.944 338.316 552.76 333.826 552.76ZM407.596 491.095 407.596 500.979 391.326 500.979 391.326 552.148 379.081 552.148 379.081 500.979 362.811 500.979 362.811 491.095 407.596 491.095ZM449.618 491.095 449.618 552.148 437.372 552.148 437.372 491.095 449.618 491.095ZM490.057 552.76C484.342 552.76 479.094 551.419 474.312 548.737 469.531 546.054 465.741 542.352 462.942 537.628 460.143 532.847 458.743 527.453 458.743 521.446 458.743 515.499 460.143 510.163 462.942 505.44 465.741 500.658 469.531 496.926 474.312 494.244 479.094 491.561 484.342 490.22 490.057 490.22 495.83 490.22 501.078 491.561 505.801 494.244 510.583 496.926 514.344 500.658 517.085 505.44 519.884 510.163 521.283 515.499 521.283 521.446 521.283 527.453 519.884 532.847 517.085 537.628 514.344 542.352 510.583 546.054 505.801 548.737 501.02 551.419 495.772 552.76 490.057 552.76ZM490.057 541.827C493.731 541.827 496.967 541.01 499.766 539.378 502.565 537.687 504.752 535.296 506.326 532.205 507.901 529.115 508.688 525.528 508.688 521.446 508.688 517.365 507.901 513.807 506.326 510.775 504.752 507.685 502.565 505.323 499.766 503.69 496.967 502.057 493.731 501.241 490.057 501.241 486.383 501.241 483.118 502.057 480.26 503.69 477.461 505.323 475.275 507.685 473.7 510.775 472.126 513.807 471.339 517.365 471.339 521.446 471.339 525.528 472.126 529.115 473.7 532.205 475.275 535.296 477.461 537.687 480.26 539.378 483.118 541.01 486.383 541.827 490.057 541.827ZM571.942 491.095 571.942 500.979 555.672 500.979 555.672 552.148 543.427 552.148 543.427 500.979 527.157 500.979 527.157 491.095 571.942 491.095Z" fill="#000000" fill-rule="nonzero" fill-opacity="1" transform="matrix(1 0 0 1.0004 279.578 -0.482921)"/></g></g></svg>